<svg width="60" height="60" viewBox="0 0 60 60" fill="none" xmlns="http://www.w3.org/2000/svg">
<path fill-rule="evenodd" clip-rule="evenodd" d="M21.0375 0C14.92 0 9.99998 5.1325 9.99998 11.42C9.99998 15.2425 11.82 18.6375 14.6175 20.71C13.1757 21.7902 12.007 23.1932 11.2051 24.8065C10.4033 26.4198 9.99052 28.1985 9.99998 30C9.99998 33.825 11.82 37.2175 14.6175 39.29C13.1757 40.3702 12.007 41.7732 11.2051 43.3865C10.4033 44.9998 9.99052 46.7785 9.99998 48.58C9.99998 54.8675 14.92 60 21.0375 60C27.1525 60 32.075 54.8675 32.075 48.58V38.925C34.0083 40.537 36.4453 41.4207 38.9625 41.4225C45.08 41.42 50 36.2875 50 30C50 26.175 48.1825 22.7825 45.3825 20.71C46.8243 19.6298 47.993 18.2268 48.7948 16.6135C49.5967 15.0002 50.0094 13.2215 50 11.42C50 5.1325 45.08 0 38.9625 0H21.0375ZM14.1475 11.42C14.1475 7.4425 17.2525 4.2575 21.0375 4.2575H27.925V18.5825H21.0375C17.2525 18.5825 14.1475 15.395 14.1475 11.42ZM38.9625 18.58H32.075V4.255H38.9625C42.75 4.255 45.8525 7.4425 45.8525 11.42C45.8525 15.395 42.75 18.58 38.9625 18.58ZM14.15 30C14.15 26.025 17.255 22.8375 21.04 22.8375H27.9275V37.1625H21.0375C17.25 37.1625 14.1475 33.975 14.1475 30H14.15ZM32.075 30C32.075 26.025 35.18 22.8375 38.965 22.8375C42.7525 22.8375 45.855 26.0225 45.855 30C45.855 33.975 42.7525 37.1625 38.965 37.1625C35.18 37.1625 32.0775 33.9775 32.0775 30H32.075ZM14.15 48.58C14.15 44.605 17.255 41.42 21.04 41.42H27.9275V48.58C27.9275 52.5575 24.8275 55.7425 21.04 55.7425C17.255 55.7425 14.15 52.5575 14.15 48.58Z" fill="white"/>
</svg>
