<svg width="200" height="68" viewBox="0 0 200 68" fill="none" xmlns="http://www.w3.org/2000/svg">
<g clip-path="url(#clip0)">
<path d="M10.9027 67.2336C7.12313 67.2336 4.3611 66.107 2.61666 63.8538C0.87222 61.5763 0 58.8991 0 55.8221C0 53.4961 0.411882 51.8486 1.23564 50.8795C2.03518 49.9346 2.91951 49.2562 3.88865 48.8443C4.83355 48.4324 5.40292 48.1417 5.59674 47.9721C9.30368 43.9017 12.1747 39.686 14.2099 35.3249V34.271C14.2099 32.3085 14.5491 30.8305 15.2275 29.8372C15.8817 28.8438 16.6812 28.3471 17.6261 28.3471C18.0864 28.3471 18.4378 28.4441 18.68 28.6379C18.8981 28.8559 19.0071 29.1346 19.0071 29.4738C19.0071 29.716 18.9223 30.2006 18.7527 30.9275C18.5831 31.6543 18.4983 32.4538 18.4983 33.3261C18.4983 34.489 18.6558 35.7247 18.9708 37.033C19.2857 38.3413 19.7945 40.0373 20.4972 42.1209C21.3209 44.6165 21.9509 46.797 22.387 48.6626C22.8231 50.5282 23.0411 52.418 23.0411 54.332C23.0411 55.8584 22.8594 57.2879 22.496 58.6204C24.6039 58.257 26.5542 57.3121 28.3471 55.7857C30.14 54.2351 31.8603 51.8971 33.5078 48.7716L34.271 49.6438C33.2292 52.6482 31.6301 55.0225 29.4738 56.767C27.3174 58.5114 24.8461 59.5896 22.0599 60.0015C21.1877 62.4001 19.7703 64.2051 17.8078 65.4165C15.8211 66.6279 13.5194 67.2336 10.9027 67.2336ZM17.0083 58.5114C17.2506 57.0093 17.3717 55.6525 17.3717 54.4411C17.3717 52.6966 17.2263 50.9522 16.9356 49.2077C16.6449 47.4633 16.2088 45.4523 15.6273 43.1749C15.0942 40.849 14.7672 39.3347 14.646 38.6321C11.6902 43.5262 8.86757 47.3058 6.17822 49.9709C7.12313 52.0061 8.54048 53.8111 10.4303 55.386C12.3201 56.9608 14.5128 58.0026 17.0083 58.5114ZM11.0845 64.1808C13.7496 64.1808 15.5788 62.7635 16.5722 59.9288C14.2463 59.4684 12.1263 58.5478 10.2122 57.1667C8.2982 55.81 6.8445 54.3199 5.85114 52.6966C4.56704 52.7451 3.92499 53.7627 3.92499 55.7494C3.92499 57.9542 4.57915 59.9167 5.88748 61.6369C7.19581 63.3328 8.92814 64.1808 11.0845 64.1808ZM75.8104 65.4892C73.8722 65.4892 72.4185 64.8956 71.4493 63.7084C70.456 62.5212 69.9593 60.9948 69.9593 59.1292C69.9593 57.5544 70.4196 55.2648 71.3403 52.2605C71.631 51.2671 71.9097 50.2738 72.1762 49.2804C72.4427 48.2871 72.576 47.4391 72.576 46.7364C72.576 45.6946 72.3216 44.9193 71.8128 44.4105C71.3282 43.8775 70.7346 43.611 70.032 43.611C68.6994 43.611 67.2578 44.5559 65.7072 46.4457C64.1808 48.3355 61.8186 51.7275 58.6204 56.6216C57.7967 57.8815 56.6579 60.0257 55.2042 63.0542L54.441 64.726C53.4961 64.726 52.5149 64.5685 51.4973 64.2535C50.4797 63.9143 49.9709 63.4903 49.9709 62.9815C49.9709 62.5697 50.4676 61.0312 51.461 58.366C52.6724 54.756 53.6415 51.7154 54.3684 49.2441C55.0952 46.7728 55.4586 44.6649 55.4586 42.9205C55.4586 40.7157 54.7318 39.6133 53.2781 39.6133C51.6548 39.6133 49.5469 40.9216 46.9545 43.5383C44.3863 46.155 41.8423 49.45 39.3226 53.4235C36.8271 57.3969 34.8888 61.3098 33.5078 65.1621C32.6356 65.1621 31.6301 64.9561 30.4914 64.5443C29.3526 64.1324 28.7833 63.7205 28.7833 63.3086C28.7833 63.139 29.1951 61.7822 30.0189 59.2383C31.3515 55.3375 32.466 51.7517 33.3624 48.4809C34.2589 45.2343 34.7434 42.4238 34.8161 40.0494C35.2038 39.5649 35.7852 39.1409 36.5605 38.7774C37.3116 38.3898 38.0627 38.196 38.8138 38.196C40.3886 38.196 41.176 38.9592 41.176 40.4855C41.176 42.0362 40.4128 45.3433 38.8865 50.407C41.7454 45.8763 44.8224 41.9877 48.1175 38.7411C51.3883 35.4703 54.4532 33.8349 57.3121 33.8349C58.9839 33.8349 60.1832 34.4527 60.91 35.6883C61.6369 36.8997 62.0003 38.4988 62.0003 40.4855C62.0003 42.448 61.7095 44.5922 61.1281 46.9182C60.5466 49.2441 59.9409 51.1945 59.3109 52.7693C61.5157 48.7474 63.8174 45.5008 66.216 43.0295C68.5904 40.5582 71.1101 39.3226 73.7753 39.3226C75.5197 39.3226 76.7917 39.8556 77.5912 40.9216C78.3665 41.9635 78.7542 43.296 78.7542 44.9193C78.7542 46.0338 78.6088 47.2089 78.3181 48.4445C78.0273 49.7044 77.5912 51.2308 77.0097 53.0237C76.0164 56.1007 75.5197 58.257 75.5197 59.4927C75.5197 61.4552 76.3919 62.4364 78.1364 62.4364C80.2927 62.4364 82.3279 61.116 84.2419 58.4751C86.1802 55.8342 88.0457 52.5634 89.8386 48.6626L90.8926 49.8982C89.2693 54.1867 87.1493 57.8573 84.5326 60.91C81.916 63.9628 79.0086 65.4892 75.8104 65.4892ZM94.1997 65.5982C91.8254 65.5982 90.0809 64.8714 88.9664 63.4177C87.8519 61.964 87.2947 60.0378 87.2947 57.6392C87.2947 55.2648 87.7913 52.7693 88.7847 50.1526C89.7781 47.536 91.0622 45.3554 92.637 43.611C94.2118 41.8666 95.7746 40.9943 97.3252 40.9943C97.8582 40.9943 98.476 41.1397 99.1787 41.4304C98.476 42.0119 97.628 43.296 96.6347 45.2827C95.6413 47.2452 94.7812 49.3531 94.0544 51.6063C93.3275 53.8353 92.9641 55.6525 92.9641 57.0577C92.9641 60.3528 94.018 62.0003 96.1259 62.0003C97.3373 62.0003 98.791 61.3704 100.487 60.1105C102.159 58.8264 103.818 57.1304 105.466 55.0225C103.818 53.69 102.546 51.9455 101.65 49.7892C100.753 47.6571 100.305 45.4281 100.305 43.1022C100.305 40.0737 101.081 37.4812 102.631 35.3249C104.158 33.1686 106.229 32.0904 108.846 32.0904C111.051 32.0904 112.613 32.684 113.534 33.8712C114.43 35.0826 114.879 36.7301 114.879 38.8138C114.879 41.0186 114.333 43.502 113.243 46.264C112.177 49.026 110.772 51.7154 109.027 54.332C110.069 54.9135 111.172 55.2042 112.335 55.2042C114.031 55.2042 115.775 54.6955 117.568 53.6779C119.385 52.6603 120.754 51.0733 121.675 48.917L122.729 49.7892C121.614 52.3574 120.039 54.2472 118.004 55.4586C115.969 56.6943 113.873 57.3121 111.717 57.3121C110.166 57.3121 108.773 57.0214 107.537 56.4399C105.454 59.1777 103.237 61.3825 100.887 63.0542C98.5124 64.7502 96.2834 65.5982 94.1997 65.5982ZM107.029 52.7693C108.531 50.4918 109.754 48.178 110.699 45.8279C111.62 43.4777 112.08 41.3093 112.08 39.3226C112.08 37.6993 111.838 36.4879 111.353 35.6883C110.845 34.8646 110.215 34.4527 109.464 34.4527C108.64 34.4527 107.816 34.8403 106.992 35.6156C106.144 36.4152 105.442 37.4933 104.884 38.8501C104.327 40.2311 104.049 41.7333 104.049 43.3566C104.049 45.1495 104.303 46.8818 104.812 48.5536C105.296 50.2011 106.035 51.6063 107.029 52.7693ZM127.271 65.4165C124.873 65.4165 123.104 64.6048 121.965 62.9815C120.851 61.3582 120.294 59.1777 120.294 56.4399C120.294 51.2066 122.087 44.0956 125.672 35.1068C129.282 26.1181 133.316 18.0259 137.774 10.8301C142.208 3.61002 145.418 0 147.405 0C148.229 0 148.907 0.714736 149.44 2.14421C149.998 3.57368 150.276 5.01526 150.276 6.46896C150.276 9.13408 149.186 13.0712 147.005 18.2803C144.825 23.4894 141.966 28.759 138.429 34.0893C134.867 39.4437 131.087 43.7806 127.09 47.0999C126.339 50.4676 125.963 53.3992 125.963 55.8948C125.963 60.377 127.235 62.6181 129.779 62.6181C131.935 62.6181 134.128 61.2492 136.357 58.5114C138.61 55.7978 140.609 52.5149 142.354 48.6626L143.662 49.3531C138.647 60.062 133.183 65.4165 127.271 65.4165ZM127.853 44.1198C131.051 40.9216 134.176 36.8997 137.229 32.0541C140.282 27.2084 142.778 22.5566 144.716 18.0986C146.63 13.6405 147.587 10.4303 147.587 8.4678C147.587 7.5229 147.381 7.05044 146.969 7.05044C146.145 7.05044 144.474 9.04928 141.954 13.047C139.434 17.0204 136.829 21.8903 134.14 27.6566C131.475 33.3988 129.379 38.8865 127.853 44.1198ZM148.023 66.7975C142.838 66.7975 140.246 63.9264 140.246 58.1843C140.246 55.6888 140.694 52.5876 141.59 48.8806C142.511 45.1979 143.747 41.2851 145.297 37.142C143.916 36.924 142.874 36.6938 142.172 36.4515V34.8888C144.255 35.1311 145.54 35.2522 146.024 35.2522C148.568 28.6137 151.306 22.8715 154.238 18.0259C157.193 13.156 159.507 10.721 161.179 10.721C161.639 10.721 162.063 10.9027 162.451 11.2662C162.839 11.6054 163.032 12.0657 163.032 12.6472C163.032 13.3983 162.669 14.5007 161.942 15.9544C161.215 17.4081 159.98 19.6492 158.235 22.6777C157.944 23.2592 157.036 24.8704 155.51 27.5113C154.007 30.1522 152.638 32.8173 151.403 35.5066H154.637C159.459 35.5066 163.614 35.3249 167.103 34.9615V36.5605C160.779 37.2389 155.667 37.5781 151.766 37.5781H150.458C147.26 44.9193 145.661 51.2671 145.661 56.6216C145.661 59.1171 146.036 60.8979 146.787 61.9639C147.538 63.0542 148.786 63.5994 150.531 63.5994C153.511 63.5994 156.454 62.2668 159.362 59.6017C162.269 56.9608 164.85 53.3144 167.103 48.6626L168.266 49.5348C166.109 54.5985 163.202 58.7416 159.544 61.9639C155.861 65.1863 152.021 66.7975 148.023 66.7975ZM171.464 65.5982C169.089 65.5982 167.345 64.8714 166.231 63.4177C165.14 61.964 164.595 60.0378 164.595 57.6392C164.595 55.2648 165.092 52.7693 166.085 50.1526C167.054 47.536 168.326 45.3554 169.901 43.611C171.476 41.8666 173.051 40.9943 174.626 40.9943C175.134 40.9943 175.74 41.1397 176.443 41.4304C175.74 42.0119 174.904 43.296 173.935 45.2827C172.942 47.2452 172.082 49.3531 171.355 51.6063C170.628 53.8353 170.265 55.6525 170.265 57.0577C170.265 60.3528 171.306 62.0003 173.39 62.0003C174.626 62.0003 176.079 61.3704 177.751 60.1105C179.447 58.8264 181.107 57.1304 182.73 55.0225C181.107 53.69 179.847 51.9455 178.95 49.7892C178.03 47.6571 177.569 45.4281 177.569 43.1022C177.569 40.0737 178.345 37.4812 179.895 35.3249C181.446 33.1686 183.53 32.0904 186.146 32.0904C188.351 32.0904 189.902 32.684 190.798 33.8712C191.695 35.0826 192.143 36.7301 192.143 38.8138C192.143 41.0186 191.61 43.502 190.544 46.264C189.453 49.026 188.036 51.7154 186.292 54.332C187.358 54.9135 188.472 55.2042 189.635 55.2042C191.307 55.2042 193.051 54.6955 194.868 53.6779C196.661 52.6603 198.018 51.0733 198.939 48.917L199.993 49.7892C198.902 52.3574 197.34 54.2472 195.305 55.4586C193.269 56.6943 191.174 57.3121 189.017 57.3121C187.442 57.3121 186.049 57.0214 184.838 56.4399C182.73 59.1777 180.501 61.3825 178.151 63.0542C175.801 64.7502 173.572 65.5982 171.464 65.5982ZM184.293 52.7693C185.819 50.4918 187.043 48.178 187.963 45.8279C188.884 43.4777 189.344 41.3093 189.344 39.3226C189.344 37.6993 189.102 36.4879 188.618 35.6883C188.133 34.8646 187.503 34.4527 186.728 34.4527C185.928 34.4527 185.104 34.8403 184.256 35.6156C183.408 36.4152 182.706 37.4933 182.149 38.8501C181.616 40.2311 181.349 41.7333 181.349 43.3566C181.349 45.1495 181.591 46.8818 182.076 48.5536C182.56 50.2011 183.299 51.6063 184.293 52.7693Z" fill="#AB000D"/>
</g>
<defs>
<clipPath id="clip0">
<rect width="200" height="67.2481" fill="white"/>
</clipPath>
</defs>
</svg>
