<svg width="41" height="40" viewBox="0 0 41 40" fill="none" xmlns="http://www.w3.org/2000/svg">
<path d="M16.3333 5C19.2065 5 21.962 6.14137 23.9937 8.17301C26.0253 10.2047 27.1667 12.9602 27.1667 15.8333C27.1667 18.5167 26.1833 20.9833 24.5667 22.8833L25.0167 23.3333H26.3333L34.6667 31.6667L32.1667 34.1667L23.8333 25.8333V24.5167L23.3833 24.0667C21.4176 25.7446 18.9178 26.6665 16.3333 26.6667C13.4602 26.6667 10.7047 25.5253 8.67301 23.4937C6.64137 21.462 5.5 18.7065 5.5 15.8333C5.5 12.9602 6.64137 10.2047 8.67301 8.17301C10.7047 6.14137 13.4602 5 16.3333 5ZM16.3333 8.33333C12.1667 8.33333 8.83333 11.6667 8.83333 15.8333C8.83333 20 12.1667 23.3333 16.3333 23.3333C20.5 23.3333 23.8333 20 23.8333 15.8333C23.8333 11.6667 20.5 8.33333 16.3333 8.33333Z" fill="white"/>
</svg>
